<svg width="40" height="16" viewBox="0 0 40 16" fill="none" xmlns="http://www.w3.org/2000/svg">
<path d="M26.7317 6.58091C25.1421 6.58091 23.7406 6.57235 22.1425 6.58091C22.0997 6.58091 22.0485 6.57235 21.9715 6.5638V3.29475H27.8768C28.2785 3.29475 29.4322 3.44879 31.0047 2.50744C32.1156 1.83994 32.0302 1.09542 32.0302 1.09542C32.0302 1.09542 30.2612 1.05263 28.4921 1.06119H20.4247C19.6214 1.06119 19.1514 1.53186 19.1514 2.32773C19.1599 5.93908 19.1685 9.54188 19.1856 13.1447C19.1856 13.2645 19.2026 13.3928 19.2283 13.5041C19.3907 14.1545 19.8094 14.5053 20.3478 14.608C20.946 14.7193 21.493 14.4369 21.7921 13.9149C21.9545 13.6325 21.9886 13.3329 21.9886 13.0163C21.9801 11.5957 21.9801 10.1923 21.9715 8.78024V8.51495C22.057 8.51495 22.1168 8.5064 22.1852 8.49784C23.6466 8.48928 25.1165 8.48072 26.5778 8.46361C26.8171 8.46361 26.8257 6.57235 26.7402 6.57235L26.7317 6.58091Z" fill="url(#paint0_linear_165_2)"/>
<path d="M31.7744 1.86572C28.5868 1.86572 26.0059 4.45015 26.0059 7.64217C26.0059 10.8342 28.5868 13.4186 31.7744 13.4186C34.9621 13.4186 37.543 10.8342 37.543 7.64217C37.543 4.45015 34.9621 1.86572 31.7744 1.86572ZM31.7744 11.921C29.4157 11.921 27.5014 10.0041 27.5014 7.64217C27.5014 5.28025 29.4157 3.36332 31.7744 3.36332C34.1331 3.36332 36.0474 5.28025 36.0474 7.64217C36.0474 10.0041 34.1331 11.921 31.7744 11.921Z" fill="url(#paint1_linear_165_2)"/>
<path d="M31.774 5.04932C30.3468 5.04932 29.1846 6.20461 29.1846 7.6423C29.1846 9.08 30.3383 10.2353 31.774 10.2353C33.2097 10.2353 34.3634 9.08 34.3634 7.6423C34.3634 6.20461 33.2097 5.04932 31.774 5.04932ZM31.774 8.93452C31.0561 8.93452 30.4836 8.35259 30.4836 7.6423C30.4836 6.93201 31.0647 6.35009 31.774 6.35009C32.4833 6.35009 33.0645 6.93201 33.0645 7.6423C33.0645 8.35259 32.4833 8.93452 31.774 8.93452Z" fill="url(#paint2_linear_165_2)"/>
<path d="M24.1504 7.53926C24.1504 6.58936 25.1417 6.58936 26.3638 6.58936C27.5859 6.58936 28.5772 6.58936 28.5772 7.53926C28.5772 8.48917 27.5859 8.48917 26.3638 8.48917C25.1417 8.48917 24.1504 8.48917 24.1504 7.53926Z" fill="url(#paint3_linear_165_2)"/>
<path d="M34.9707 7.6418C34.9707 6.69189 35.962 6.69189 37.1841 6.69189C38.4062 6.69189 39.3975 6.69189 39.3975 7.6418C39.3975 8.5917 38.4062 8.5917 37.1841 8.5917C35.962 8.5917 34.9707 8.5917 34.9707 7.6418Z" fill="url(#paint4_linear_165_2)"/>
<path d="M31.7738 0C32.7224 0 32.7224 0.992695 32.7224 2.21645C32.7224 3.4402 32.7224 4.43289 31.7738 4.43289C30.8252 4.43289 30.8252 3.4402 30.8252 2.21645C30.8252 0.992695 30.8252 0 31.7738 0Z" fill="url(#paint5_linear_165_2)"/>
<path d="M31.7738 10.8428C32.7224 10.8428 32.7224 11.8355 32.7224 13.0592C32.7224 14.283 32.7224 15.2757 31.7738 15.2757C30.8252 15.2757 30.8252 14.283 30.8252 13.0592C30.8252 11.8355 30.8252 10.8428 31.7738 10.8428Z" fill="url(#paint6_linear_165_2)"/>
<path d="M15.0581 8.2582V2.19934C15.0581 1.57463 15.5195 0.975591 16.1178 0.881457C17.1518 0.710302 17.8184 1.34357 17.844 2.28492C17.8782 3.91944 17.8782 5.55396 17.8868 7.19704C17.8953 9.07118 17.8953 10.9453 17.9039 12.8195C17.9039 13.3415 17.7671 13.8122 17.3398 14.1288C16.6305 14.6594 15.7759 14.454 15.3059 13.7522C14.0069 11.8011 12.7335 9.82426 11.4431 7.86455C10.6312 6.61512 9.81081 5.3657 8.99039 4.11627C8.50327 3.37175 7.50339 3.30329 6.98208 3.97079C6.78552 4.21896 6.75989 4.50992 6.75989 4.818C6.75989 7.01733 6.78552 9.21666 6.77698 11.416C6.77698 12.2974 6.37532 13.0163 5.71727 13.5725C4.35846 14.7193 2.3416 14.7022 0.991336 13.5383C0.350386 12.9821 0 12.2889 0 11.4246V5.13464C0 4.74954 0.222196 4.63829 0.495668 4.63829H2.29887C2.57235 4.62973 2.70908 4.84367 2.71763 5.11752C2.71763 6.34983 2.75181 9.54186 2.76036 11.2363C2.76036 11.6813 2.99965 11.9295 3.40985 11.9295C3.82006 11.9295 4.00807 11.6898 3.99953 11.3219C3.99953 9.15676 3.99953 6.99166 3.9568 4.82656C3.93116 2.95242 5.1276 1.62598 6.67443 1.18953C8.38363 0.701745 9.89627 1.06973 11.1013 2.4304C11.4773 2.85829 11.7678 3.37175 12.0755 3.85098C13.0156 5.28012 13.9556 6.70926 14.8871 8.13839C14.9213 8.1983 14.964 8.24964 15.0068 8.30099C15.041 8.28387 15.0581 8.28387 15.0666 8.28387V8.2582H15.0581Z" fill="url(#paint7_linear_165_2)"/>
<path d="M0.0507812 2.25034C0.0507812 1.49726 0.563541 0.966685 1.34123 0.983801C2.1531 1.00092 2.72568 1.54005 2.74277 2.25034C2.74277 2.93496 2.09328 3.51688 1.34123 3.51688C0.589179 3.51688 0.0507812 3.01198 0.0507812 2.25034Z" fill="url(#paint8_linear_165_2)"/>
<defs>
<linearGradient id="paint0_linear_165_2" x1="0.0425131" y1="7.4538" x2="39.3541" y2="7.88051" gradientUnits="userSpaceOnUse">
<stop stop-color="#69E042"/>
<stop offset="0.5" stop-color="#00C18F"/>
<stop offset="1" stop-color="#0446F6"/>
</linearGradient>
<linearGradient id="paint1_linear_165_2" x1="-0.127804" y1="7.62506" x2="39.4402" y2="7.62506" gradientUnits="userSpaceOnUse">
<stop stop-color="#69E042"/>
<stop offset="0.5" stop-color="#00C18F"/>
<stop offset="1" stop-color="#0446F6"/>
</linearGradient>
<linearGradient id="paint2_linear_165_2" x1="0.0427066" y1="7.62519" x2="39.5338" y2="7.64226" gradientUnits="userSpaceOnUse">
<stop stop-color="#69E042"/>
<stop offset="0.5" stop-color="#00C18F"/>
<stop offset="1" stop-color="#0446F6"/>
</linearGradient>
<linearGradient id="paint3_linear_165_2" x1="0.0421245" y1="7.53926" x2="39.5332" y2="7.53926" gradientUnits="userSpaceOnUse">
<stop stop-color="#69E042"/>
<stop offset="0.5" stop-color="#00C18F"/>
<stop offset="1" stop-color="#0446F6"/>
</linearGradient>
<linearGradient id="paint4_linear_165_2" x1="-0.0422569" y1="8.05257" x2="39.4061" y2="7.64292" gradientUnits="userSpaceOnUse">
<stop stop-color="#69E042"/>
<stop offset="0.5" stop-color="#00C18F"/>
<stop offset="1" stop-color="#0446F6"/>
</linearGradient>
<linearGradient id="paint5_linear_165_2" x1="0.127964" y1="2.23356" x2="40.0549" y2="2.21649" gradientUnits="userSpaceOnUse">
<stop stop-color="#69E042"/>
<stop offset="0.5" stop-color="#00C18F"/>
<stop offset="1" stop-color="#0446F6"/>
</linearGradient>
<linearGradient id="paint6_linear_165_2" x1="0.0425049" y1="13.102" x2="40.0549" y2="13.0593" gradientUnits="userSpaceOnUse">
<stop stop-color="#69E042"/>
<stop offset="0.5" stop-color="#00C18F"/>
<stop offset="1" stop-color="#0446F6"/>
</linearGradient>
<linearGradient id="paint7_linear_165_2" x1="-0.21365" y1="7.62493" x2="39.6107" y2="7.62493" gradientUnits="userSpaceOnUse">
<stop stop-color="#69E042"/>
<stop offset="0.5" stop-color="#00C18F"/>
<stop offset="1" stop-color="#0446F6"/>
</linearGradient>
<linearGradient id="paint8_linear_165_2" x1="0.0186573" y1="2.24718" x2="39.5248" y2="2.23326" gradientUnits="userSpaceOnUse">
<stop stop-color="#69E042"/>
<stop offset="0.5" stop-color="#00C18F"/>
<stop offset="1" stop-color="#0446F6"/>
</linearGradient>
</defs>
</svg>
